<?xml version="1.0" standalone="no"?>
<!DOCTYPE svg PUBLIC "-//W3C//DTD SVG 20010904//EN"
 "http://www.w3.org/TR/2001/REC-SVG-20010904/DTD/svg10.dtd">
<svg version="1.0" xmlns="http://www.w3.org/2000/svg"
 width="954.000000pt" height="1280.000000pt" viewBox="0 0 954.000000 1280.000000"
 preserveAspectRatio="xMidYMid meet">
<metadata>
Created by potrace 1.15, written by Peter Selinger 2001-2017
</metadata>
<g transform="translate(0.000000,1280.000000) scale(0.100000,-0.100000)"
fill="#000000" stroke="none">
<path d="M4690 11714 c-150 -32 -317 -147 -368 -255 -32 -67 -52 -170 -52
-279 l-1 -95 -67 -42 c-178 -111 -338 -250 -372 -324 -42 -93 -13 -196 79
-282 56 -53 112 -81 179 -92 24 -4 41 -9 39 -12 -3 -2 -69 3 -147 11 -226 25
-201 35 -250 -96 -23 -62 -51 -133 -63 -157 l-22 -45 -85 0 c-90 -1 -161 -23
-244 -74 -126 -78 -266 -295 -369 -572 -69 -185 -82 -272 -107 -725 -34 -604
-56 -718 -240 -1231 -286 -794 -377 -1179 -439 -1869 -51 -557 -60 -822 -87
-2345 -13 -809 -21 -1023 -44 -1300 -15 -165 -7 -201 65 -289 75 -93 78 -104
60 -217 -24 -150 -18 -211 23 -258 15 -16 17 -47 17 -245 0 -258 5 -279 82
-337 46 -35 222 -107 458 -187 l150 -51 192 -4 c118 -2 213 0 245 7 83 18 152
56 173 95 18 33 18 36 1 80 -19 49 -74 109 -297 321 -105 101 -211 228 -197
239 1 2 21 15 44 29 60 37 74 55 74 93 0 31 -14 49 -114 154 l-114 120 83 81
c93 90 118 135 140 254 20 102 35 378 38 655 1 226 0 244 -37 485 -59 388 -51
464 87 832 124 328 145 413 166 667 6 65 12 120 13 122 7 7 288 -1396 428
-2141 134 -712 162 -797 332 -1026 53 -72 63 -93 72 -149 10 -59 9 -71 -16
-145 -43 -126 -55 -214 -37 -261 32 -85 180 -120 459 -109 l155 7 215 -55
c314 -81 651 -119 751 -86 77 26 129 110 114 186 -10 53 -64 103 -202 187
-165 99 -275 178 -412 296 -92 78 -109 97 -98 108 11 11 1 47 -59 210 l-72
197 -115 111 -115 111 -5 564 c-5 630 -2 578 -112 1804 -102 1139 -114 1214
-239 1529 -73 183 -94 276 -103 457 -8 173 -7 176 65 181 110 8 242 96 303
202 24 42 29 63 30 121 0 83 27 178 51 183 9 2 123 -24 252 -57 397 -102 611
-179 725 -262 33 -24 61 -46 61 -49 0 -3 -63 -85 -140 -184 -77 -98 -140 -186
-140 -196 0 -9 27 -38 60 -65 l61 -47 -44 -47 c-54 -57 -76 -125 -57 -171 17
-41 455 -457 580 -551 l50 -37 87 50 c102 60 452 231 771 378 l224 103 97 -6
c118 -8 217 -25 461 -78 102 -23 228 -47 281 -54 62 -8 114 -22 147 -39 61
-31 92 -34 92 -8 0 58 -102 111 -390 201 -522 162 -640 178 -797 106 l-56 -25
-63 41 -63 40 50 69 c57 77 69 122 45 168 -15 29 -14 33 14 94 136 293 45 425
-464 674 -127 62 -159 82 -175 110 -35 58 -137 94 -271 94 -56 0 -95 -9 -197
-43 -71 -24 -157 -52 -194 -61 l-65 -18 -155 72 c-201 94 -375 182 -470 236
l-77 44 24 60 c14 32 36 110 49 172 14 62 27 122 30 134 4 16 10 20 33 16 l29
-4 6 114 c31 534 32 1023 1 1241 -33 241 -117 381 -274 454 -39 19 -60 36 -71
59 l-16 32 45 7 c53 8 80 33 118 106 24 49 68 108 200 269 58 71 82 123 97
206 l13 67 134 57 c281 118 380 182 429 281 36 71 38 107 12 165 -45 99 -172
150 -446 179 l-60 6 -58 114 c-62 123 -137 243 -195 312 -102 122 -246 165
-422 127z m1959 -4724 c210 -107 318 -180 366 -249 42 -59 42 -138 1 -234
l-29 -68 -41 39 c-40 39 -42 39 -74 26 -18 -8 -38 -11 -45 -7 -31 18 -294 216
-394 295 l-111 90 54 79 c29 44 57 91 60 104 3 14 8 25 11 25 3 0 94 -45 202
-100z m-700 -489 c-248 -255 -235 -246 -288 -201 l-24 21 64 82 c206 268 205
267 253 267 50 0 161 32 191 54 61 46 13 -8 -196 -223z"/>
</g>
</svg>
